<svg width="24" height="25" viewBox="0 0 24 25" fill="none" xmlns="http://www.w3.org/2000/svg">
<path d="M22.0634 12.5C22.0437 11.8016 21.8306 11.1207 21.4467 10.5351C21.0639 9.95149 20.5248 9.4838 19.8915 9.18787C20.1326 8.53082 20.1833 7.81997 20.0426 7.13601C19.9008 6.44999 19.5697 5.81778 19.0886 5.31076C18.5805 4.82962 17.9493 4.49954 17.2633 4.35675C16.5794 4.21603 15.8685 4.26673 15.2115 4.50782C14.9166 3.8725 14.4499 3.33341 13.8653 2.95056C13.2796 2.56772 12.5988 2.35353 11.8993 2.33594C11.2009 2.35456 10.5221 2.56668 9.93852 2.95056C9.3539 3.33444 8.89035 3.87457 8.59649 4.50782C7.93944 4.26673 7.22652 4.21396 6.53946 4.35675C5.85241 4.49747 5.21915 4.82858 4.71111 5.31076C4.22996 5.81881 3.90092 6.45206 3.76123 7.13705C3.62051 7.821 3.67431 8.53185 3.91747 9.18787C3.28215 9.4838 2.74099 9.95046 2.35608 10.534C1.97116 11.1187 1.75594 11.8005 1.73524 12.5C1.75697 13.1995 1.97116 13.8803 2.35608 14.466C2.74099 15.0496 3.28215 15.5173 3.91747 15.8122C3.67431 16.4682 3.62051 17.179 3.76123 17.863C3.90195 18.549 4.22996 19.1812 4.71007 19.6893C5.21812 20.1683 5.85034 20.4974 6.53532 20.6391C7.21927 20.7819 7.93013 20.7302 8.58718 20.4922C8.88311 21.1255 9.34977 21.6646 9.93438 22.0484C10.519 22.4313 11.2009 22.6444 11.8993 22.6641C12.5988 22.6465 13.2796 22.4333 13.8653 22.0505C14.4499 21.6677 14.9166 21.1265 15.2115 20.4932C15.8654 20.7519 16.5814 20.813 17.2706 20.6702C17.9587 20.5274 18.5898 20.187 19.0875 19.6893C19.5852 19.1916 19.9267 18.5604 20.0695 17.8713C20.2123 17.1821 20.1512 16.4661 19.8915 15.8122C20.5248 15.5162 21.0639 15.0496 21.4477 14.465C21.8306 13.8803 22.0437 13.1985 22.0634 12.5ZM10.4517 16.6648L6.74227 12.9563L8.14121 11.5481L10.3824 13.7893L15.1421 8.60325L16.599 9.95149L10.4517 16.6648Z" fill="#0B34AC"/>
<path d="M8.27779 11.4653L6.72571 13.0173L10.3472 16.6389L16.5556 9.91317L15.0035 8.36108L10.3472 13.5347L8.27779 11.4653Z" fill="#FAFAFA"/>
</svg>
