<svg width="26" height="25" viewBox="0 0 26 25" fill="none" xmlns="http://www.w3.org/2000/svg">
<path d="M7.79861 17.595L11.1097 10.5589L18.1458 7.24783L14.8347 14.2839L7.79861 17.595ZM12.9722 11.4902C12.7252 11.4902 12.4884 11.5883 12.3137 11.7629C12.1391 11.9376 12.041 12.1745 12.041 12.4214C12.041 12.6684 12.1391 12.9053 12.3137 13.0799C12.4884 13.2546 12.7252 13.3527 12.9722 13.3527C13.2192 13.3527 13.4561 13.2546 13.6307 13.0799C13.8054 12.9053 13.9035 12.6684 13.9035 12.4214C13.9035 12.1745 13.8054 11.9376 13.6307 11.7629C13.4561 11.5883 13.2192 11.4902 12.9722 11.4902ZM12.9722 2.07422C14.331 2.07422 15.6765 2.34186 16.9319 2.86185C18.1873 3.38185 19.328 4.14402 20.2888 5.10485C21.2496 6.06568 22.0118 7.20635 22.5318 8.46173C23.0518 9.71711 23.3194 11.0626 23.3194 12.4214C23.3194 15.1657 22.2293 17.7975 20.2888 19.738C18.3483 21.6785 15.7165 22.7687 12.9722 22.7687C11.6134 22.7687 10.2679 22.501 9.01251 21.981C7.75713 21.461 6.61646 20.6989 5.65563 19.738C3.71515 17.7975 2.625 15.1657 2.625 12.4214C2.625 9.67719 3.71515 7.04533 5.65563 5.10485C7.59611 3.16437 10.228 2.07422 12.9722 2.07422ZM12.9722 4.14366C10.7768 4.14366 8.67133 5.01578 7.11895 6.56817C5.56656 8.12055 4.69444 10.226 4.69444 12.4214C4.69444 14.6168 5.56656 16.7223 7.11895 18.2747C8.67133 19.8271 10.7768 20.6992 12.9722 20.6992C15.1676 20.6992 17.2731 19.8271 18.8255 18.2747C20.3779 16.7223 21.25 14.6168 21.25 12.4214C21.25 10.226 20.3779 8.12055 18.8255 6.56817C17.2731 5.01578 15.1676 4.14366 12.9722 4.14366Z" fill="#FAFAFA"/>
</svg>
