<svg width="26" height="26" viewBox="0 0 26 26" fill="none" xmlns="http://www.w3.org/2000/svg">
<path d="M1.70898 21.4337V15.0125L7.32664 12.6055L12.9443 15.0143V21.4337L7.32664 23.839L1.70898 21.4337Z" stroke="#FAFAFA" stroke-width="1.03472" stroke-linecap="round" stroke-linejoin="round"/>
<path d="M1.70898 15.002L7.32664 17.409L12.9443 15.002M7.32664 6.23047L12.9425 8.6393L18.5602 6.23224" stroke="#FAFAFA" stroke-width="1.03472" stroke-linecap="round" stroke-linejoin="round"/>
<path d="M12.9434 15.0039L18.561 17.411L24.1787 15.0039" stroke="#FAFAFA" stroke-width="1.03472" stroke-linecap="round" stroke-linejoin="round"/>
<path d="M7.32617 17.4105V23.8405M18.5633 17.4105V23.8405M12.9421 8.63722V15.0655M7.32972 12.6017V6.1805L12.9456 3.77344L18.5633 6.1805V12.6017L12.9456 15.0087L7.32972 12.6017ZM12.9421 21.4335V15.0123L18.5597 12.6052L24.1774 15.0141V21.4335L18.5597 23.8388L12.9421 21.4335Z" stroke="#FAFAFA" stroke-width="1.03472" stroke-linecap="round" stroke-linejoin="round"/>
</svg>
